<?xml version="1.0" encoding="iso-8859-1"?>
<!-- Generator: Adobe Illustrator 18.1.1, SVG Export Plug-In . SVG Version: 6.00 Build 0)  -->
<svg version="1.1" id="Capa_1" xmlns="http://www.w3.org/2000/svg" xmlns:xlink="http://www.w3.org/1999/xlink" x="0px" y="0px" viewBox="0 0 456.556 456.556" style="enable-background:new 0 0 456.556 456.556;" xml:space="preserve">
    <g>
        <path d="M24.381,273.57c-6.504,0-12.211-4.728-13.253-11.351C-3.937,166.131,47.167,70.288,135.415,29.136
		c94.633-44.138,205.059-14.799,266.527,64.476V13.428C401.942,6.015,407.957,0,415.37,0c7.413,0,13.428,6.015,13.428,13.428
		v127.763c0,4.105-1.881,7.987-5.098,10.533c-3.224,2.553-7.413,3.497-11.428,2.532l-110.313-26.15
		c-7.211-1.706-11.68-8.945-9.966-16.156c1.707-7.218,8.966-11.708,16.156-9.973l80.436,19.009
		C336.62,43.264,234.063,12.764,146.759,53.475C69.303,89.598,24.437,173.726,37.663,258.065c1.147,7.323-3.861,14.197-11.19,15.344
		C25.773,273.521,25.067,273.57,24.381,273.57z" />
        <path d="M41.299,456.556c-7.413,0-13.428-6.015-13.428-13.428V315.533c0-0.042,0-0.084,0-0.126v-0.042
		c0-4.105,1.881-7.987,5.098-10.533c3.231-2.553,7.434-3.476,11.428-2.532l110.313,26.15c7.211,1.706,11.673,8.938,9.966,16.156
		c-1.706,7.218-8.938,11.687-16.149,9.98l-0.021-0.007l-80.541-19.016c51.964,77.743,154.521,108.236,241.832,67.525
		c77.435-36.116,122.301-120.224,109.103-204.534c-1.147-7.33,3.861-14.197,11.19-15.344c7.406-1.203,14.197,3.868,15.344,11.19
		c15.037,96.067-36.074,191.889-124.294,233.027c-94.577,44.117-204.933,14.834-266.415-64.329v80.03
		C54.728,450.541,48.713,456.556,41.299,456.556z" />
    </g>
    <g>
    </g>
    <g>
    </g>
    <g>
    </g>
    <g>
    </g>
    <g>
    </g>
    <g>
    </g>
    <g>
    </g>
    <g>
    </g>
    <g>
    </g>
    <g>
    </g>
    <g>
    </g>
    <g>
    </g>
    <g>
    </g>
    <g>
    </g>
    <g>
    </g>
</svg>
